<?xml version="1.0" encoding="UTF-8"?>
<!DOCTYPE svg PUBLIC "-//W3C//DTD SVG 1.1//EN" "http://www.w3.org/Graphics/SVG/1.1/DTD/svg11.dtd">
<svg version="1.1" xmlns="http://www.w3.org/2000/svg" xmlns:xlink="http://www.w3.org/1999/xlink" x="0" y="0" width="1040" height="188.31" viewBox="0, 0, 1040, 188.31">
  <g id="Calque_1">
    <path d="M285.954,8.825 Q285.954,8.195 286.395,7.754 Q286.836,7.313 287.466,7.313 L302.208,7.313 Q302.838,7.313 303.279,7.754 Q303.72,8.195 303.72,8.825 L303.72,94.001 Q303.72,94.631 303.279,95.072 Q302.838,95.513 302.208,95.513 L287.466,95.513 Q286.836,95.513 286.395,95.072 Q285.954,94.631 285.954,94.001 L285.954,89.843 Q285.954,89.465 285.702,89.402 Q285.45,89.339 285.198,89.591 Q279.906,96.521 270.708,96.521 Q261.888,96.521 255.525,91.607 Q249.162,86.693 246.39,78.125 Q244.248,71.573 244.248,62.879 Q244.248,53.933 246.516,47.255 Q249.414,39.191 255.651,34.466 Q261.888,29.741 271.086,29.741 Q280.158,29.741 285.198,36.041 Q285.45,36.419 285.702,36.293 Q285.954,36.167 285.954,35.789 z M283.308,75.857 Q285.828,71.195 285.828,63.131 Q285.828,54.689 283.056,49.901 Q280.158,44.987 274.614,44.987 Q268.692,44.987 265.668,49.901 Q262.518,54.815 262.518,63.257 Q262.518,70.817 265.164,75.857 Q268.314,81.275 274.488,81.275 Q280.158,81.275 283.308,75.857 z" fill="#000000"/>
    <path d="M370.406,56.453 Q371.162,61.241 370.91,67.163 Q370.784,68.675 369.272,68.675 L330.338,68.675 Q329.582,68.675 329.834,69.305 Q330.212,71.825 331.22,74.345 Q334.496,81.401 344.576,81.401 Q352.64,81.275 357.302,74.849 Q357.806,74.093 358.436,74.093 Q358.814,74.093 359.318,74.597 L368.39,83.543 Q369.02,84.173 369.02,84.677 Q369.02,84.929 368.516,85.685 Q364.358,90.851 357.806,93.686 Q351.254,96.521 343.442,96.521 Q332.606,96.521 325.109,91.607 Q317.612,86.693 314.336,77.873 Q311.69,71.573 311.69,61.367 Q311.69,54.437 313.58,49.145 Q316.478,40.199 323.723,34.907 Q330.968,29.615 340.922,29.615 Q353.522,29.615 361.145,36.923 Q368.768,44.231 370.406,56.453 z M341.048,44.987 Q333.11,44.987 330.59,52.421 Q330.086,54.059 329.708,56.453 Q329.708,57.083 330.338,57.083 L352.136,57.083 Q352.892,57.083 352.64,56.453 Q352.01,52.799 352.01,52.925 Q350.876,49.145 348.041,47.066 Q345.206,44.987 341.048,44.987 z" fill="#000000"/>
    <path d="M406.348,96.521 Q396.268,96.521 388.897,91.481 Q381.526,86.441 378.376,77.621 Q376.234,71.321 376.234,62.753 Q376.234,54.311 378.376,48.137 Q381.4,39.569 388.834,34.655 Q396.268,29.741 406.348,29.741 Q416.428,29.741 424.051,34.781 Q431.674,39.821 434.194,47.507 Q435.202,50.531 435.202,52.043 L435.202,52.295 Q435.202,53.429 433.942,53.681 L419.452,55.823 L419.2,55.823 Q418.066,55.823 417.688,54.563 L417.31,52.547 Q416.428,49.271 413.404,47.129 Q410.38,44.987 406.222,44.987 Q402.19,44.987 399.418,47.003 Q396.646,49.019 395.512,52.547 Q394.126,56.327 394.126,62.879 Q394.126,69.431 395.386,73.211 Q396.52,76.991 399.355,79.133 Q402.19,81.275 406.222,81.275 Q410.128,81.275 413.089,79.196 Q416.05,77.117 417.184,73.463 Q417.31,73.211 417.31,72.707 Q417.436,72.581 417.436,72.329 Q417.562,70.817 419.2,71.069 L433.69,73.337 Q434.95,73.589 434.95,74.723 Q434.95,75.731 434.194,78.503 Q431.548,86.945 423.925,91.733 Q416.302,96.521 406.348,96.521 z" fill="#000000"/>
    <path d="M451.11,23.441 Q446.826,23.441 443.991,20.606 Q441.156,17.771 441.156,13.487 Q441.156,9.077 443.928,6.305 Q446.7,3.533 451.11,3.533 Q455.52,3.533 458.292,6.305 Q461.064,9.077 461.064,13.487 Q461.064,17.771 458.229,20.606 Q455.394,23.441 451.11,23.441 z M443.55,95.513 Q442.92,95.513 442.479,95.072 Q442.038,94.631 442.038,94.001 L442.038,32.135 Q442.038,31.505 442.479,31.064 Q442.92,30.623 443.55,30.623 L458.292,30.623 Q458.922,30.623 459.363,31.064 Q459.804,31.505 459.804,32.135 L459.804,94.001 Q459.804,94.631 459.363,95.072 Q458.922,95.513 458.292,95.513 z" fill="#000000"/>
    <path d="M509.858,8.825 Q509.858,8.195 510.299,7.754 Q510.74,7.313 511.37,7.313 L526.112,7.313 Q526.742,7.313 527.183,7.754 Q527.624,8.195 527.624,8.825 L527.624,94.001 Q527.624,94.631 527.183,95.072 Q526.742,95.513 526.112,95.513 L511.37,95.513 Q510.74,95.513 510.299,95.072 Q509.858,94.631 509.858,94.001 L509.858,89.843 Q509.858,89.465 509.606,89.402 Q509.354,89.339 509.102,89.591 Q503.81,96.521 494.612,96.521 Q485.792,96.521 479.429,91.607 Q473.066,86.693 470.294,78.125 Q468.152,71.573 468.152,62.879 Q468.152,53.933 470.42,47.255 Q473.318,39.191 479.555,34.466 Q485.792,29.741 494.99,29.741 Q504.062,29.741 509.102,36.041 Q509.354,36.419 509.606,36.293 Q509.858,36.167 509.858,35.789 z M507.212,75.857 Q509.732,71.195 509.732,63.131 Q509.732,54.689 506.96,49.901 Q504.062,44.987 498.518,44.987 Q492.596,44.987 489.572,49.901 Q486.422,54.815 486.422,63.257 Q486.422,70.817 489.068,75.857 Q492.218,81.275 498.392,81.275 Q504.062,81.275 507.212,75.857 z" fill="#000000"/>
    <path d="M546.556,23.441 Q542.272,23.441 539.437,20.606 Q536.602,17.771 536.602,13.487 Q536.602,9.077 539.374,6.305 Q542.146,3.533 546.556,3.533 Q550.966,3.533 553.738,6.305 Q556.51,9.077 556.51,13.487 Q556.51,17.771 553.675,20.606 Q550.84,23.441 546.556,23.441 z M538.996,95.513 Q538.366,95.513 537.925,95.072 Q537.484,94.631 537.484,94.001 L537.484,32.135 Q537.484,31.505 537.925,31.064 Q538.366,30.623 538.996,30.623 L553.738,30.623 Q554.368,30.623 554.809,31.064 Q555.25,31.505 555.25,32.135 L555.25,94.001 Q555.25,94.631 554.809,95.072 Q554.368,95.513 553.738,95.513 z" fill="#000000"/>
    <path d="M636.93,29.741 Q646.758,29.741 652.302,35.663 Q657.846,41.585 657.846,52.295 L657.846,94.001 Q657.846,94.631 657.405,95.072 Q656.964,95.513 656.334,95.513 L641.592,95.513 Q640.962,95.513 640.521,95.072 Q640.08,94.631 640.08,94.001 L640.08,56.201 Q640.08,51.035 637.434,48.011 Q634.788,44.987 630.378,44.987 Q625.968,44.987 623.196,48.011 Q620.424,51.035 620.424,56.075 L620.424,94.001 Q620.424,94.631 619.983,95.072 Q619.542,95.513 618.912,95.513 L604.296,95.513 Q603.666,95.513 603.225,95.072 Q602.784,94.631 602.784,94.001 L602.784,56.201 Q602.784,51.161 600.012,48.074 Q597.24,44.987 592.83,44.987 Q588.798,44.987 586.089,47.381 Q583.38,49.775 582.876,54.059 L582.876,94.001 Q582.876,94.631 582.435,95.072 Q581.994,95.513 581.364,95.513 L566.622,95.513 Q565.992,95.513 565.551,95.072 Q565.11,94.631 565.11,94.001 L565.11,32.261 Q565.11,31.631 565.551,31.19 Q565.992,30.749 566.622,30.749 L581.364,30.749 Q581.994,30.749 582.435,31.19 Q582.876,31.631 582.876,32.261 L582.876,37.175 Q582.876,37.553 583.128,37.679 Q583.38,37.805 583.632,37.427 Q588.798,29.741 599.634,29.741 Q605.934,29.741 610.659,32.387 Q615.384,35.033 617.904,39.947 Q618.282,40.703 618.786,39.947 Q621.558,34.781 626.283,32.261 Q631.008,29.741 636.93,29.741 z" fill="#000000"/>
    <path d="M285.954,99.425 Q285.954,98.795 286.395,98.354 Q286.836,97.913 287.466,97.913 L302.208,97.913 Q302.838,97.913 303.279,98.354 Q303.72,98.795 303.72,99.425 L303.72,184.601 Q303.72,185.231 303.279,185.672 Q302.838,186.113 302.208,186.113 L287.466,186.113 Q286.836,186.113 286.395,185.672 Q285.954,185.231 285.954,184.601 L285.954,180.443 Q285.954,180.065 285.702,180.002 Q285.45,179.939 285.198,180.191 Q279.906,187.121 270.708,187.121 Q261.888,187.121 255.525,182.207 Q249.162,177.293 246.39,168.725 Q244.248,162.173 244.248,153.479 Q244.248,144.533 246.516,137.855 Q249.414,129.791 255.651,125.066 Q261.888,120.341 271.086,120.341 Q280.158,120.341 285.198,126.641 Q285.45,127.019 285.702,126.893 Q285.954,126.767 285.954,126.389 z M283.308,166.457 Q285.828,161.795 285.828,153.731 Q285.828,145.289 283.056,140.501 Q280.158,135.587 274.614,135.587 Q268.692,135.587 265.668,140.501 Q262.518,145.415 262.518,153.857 Q262.518,161.417 265.164,166.457 Q268.314,171.875 274.488,171.875 Q280.158,171.875 283.308,166.457 z" fill="#000000"/>
    <path d="M341.678,187.121 Q331.094,187.121 323.534,181.577 Q315.974,176.033 313.202,166.457 Q311.438,160.535 311.438,153.605 Q311.438,146.171 313.202,140.249 Q316.1,130.925 323.66,125.633 Q331.22,120.341 341.804,120.341 Q352.136,120.341 359.444,125.57 Q366.752,130.799 369.776,140.123 Q371.792,146.423 371.792,153.353 Q371.792,160.157 370.028,166.079 Q367.256,175.907 359.759,181.514 Q352.262,187.121 341.678,187.121 z M341.678,171.875 Q345.836,171.875 348.734,169.355 Q351.632,166.835 352.892,162.425 Q353.9,158.393 353.9,153.605 Q353.9,148.313 352.892,144.659 Q351.506,140.375 348.608,137.981 Q345.71,135.587 341.552,135.587 Q337.268,135.587 334.433,137.981 Q331.598,140.375 330.338,144.659 Q329.33,147.683 329.33,153.605 Q329.33,159.275 330.212,162.425 Q331.472,166.835 334.433,169.355 Q337.394,171.875 341.678,171.875 z" fill="#000000"/>
    <path d="M380.77,186.113 Q380.14,186.113 379.699,185.672 Q379.258,185.231 379.258,184.601 L379.258,99.425 Q379.258,98.795 379.699,98.354 Q380.14,97.913 380.77,97.913 L395.512,97.913 Q396.142,97.913 396.583,98.354 Q397.024,98.795 397.024,99.425 L397.024,141.887 Q397.024,142.265 397.276,142.328 Q397.528,142.391 397.78,142.139 L414.916,122.231 Q415.798,121.349 416.806,121.349 L433.564,121.349 Q434.824,121.349 434.824,122.231 Q434.824,122.609 434.446,123.239 L418.444,143.525 Q418.192,144.029 418.318,144.407 L437.092,184.349 Q437.344,184.853 437.344,185.105 Q437.344,186.113 435.958,186.113 L420.46,186.113 Q419.2,186.113 418.696,184.979 L406.222,155.495 Q406.096,155.243 405.781,155.18 Q405.466,155.117 405.34,155.369 L397.276,165.449 Q397.024,165.953 397.024,166.205 L397.024,184.601 Q397.024,185.231 396.583,185.672 Q396.142,186.113 395.512,186.113 z" fill="#000000"/>
    <path d="M480.216,122.861 Q480.216,122.231 480.657,121.79 Q481.098,121.349 481.728,121.349 L496.47,121.349 Q497.1,121.349 497.541,121.79 Q497.982,122.231 497.982,122.861 L497.982,184.601 Q497.982,185.231 497.541,185.672 Q497.1,186.113 496.47,186.113 L481.728,186.113 Q481.098,186.113 480.657,185.672 Q480.216,185.231 480.216,184.601 L480.216,180.317 Q480.216,179.939 479.964,179.876 Q479.712,179.813 479.46,180.191 Q474.42,186.995 463.836,186.995 Q454.26,186.995 448.086,181.199 Q441.912,175.403 441.912,164.945 L441.912,122.861 Q441.912,122.231 442.353,121.79 Q442.794,121.349 443.424,121.349 L458.04,121.349 Q458.67,121.349 459.111,121.79 Q459.552,122.231 459.552,122.861 L459.552,160.535 Q459.552,165.575 462.261,168.725 Q464.97,171.875 469.758,171.875 Q474.042,171.875 476.814,169.292 Q479.586,166.709 480.216,162.551 z" fill="#000000"/>
    <path d="M578.906,120.341 Q588.734,120.341 594.278,126.263 Q599.822,132.185 599.822,142.895 L599.822,184.601 Q599.822,185.231 599.381,185.672 Q598.94,186.113 598.31,186.113 L583.568,186.113 Q582.938,186.113 582.497,185.672 Q582.056,185.231 582.056,184.601 L582.056,146.801 Q582.056,141.635 579.41,138.611 Q576.764,135.587 572.354,135.587 Q567.944,135.587 565.172,138.611 Q562.4,141.635 562.4,146.675 L562.4,184.601 Q562.4,185.231 561.959,185.672 Q561.518,186.113 560.888,186.113 L546.272,186.113 Q545.642,186.113 545.201,185.672 Q544.76,185.231 544.76,184.601 L544.76,146.801 Q544.76,141.761 541.988,138.674 Q539.216,135.587 534.806,135.587 Q530.774,135.587 528.065,137.981 Q525.356,140.375 524.852,144.659 L524.852,184.601 Q524.852,185.231 524.411,185.672 Q523.97,186.113 523.34,186.113 L508.598,186.113 Q507.968,186.113 507.527,185.672 Q507.086,185.231 507.086,184.601 L507.086,122.861 Q507.086,122.231 507.527,121.79 Q507.968,121.349 508.598,121.349 L523.34,121.349 Q523.97,121.349 524.411,121.79 Q524.852,122.231 524.852,122.861 L524.852,127.775 Q524.852,128.153 525.104,128.279 Q525.356,128.405 525.608,128.027 Q530.774,120.341 541.61,120.341 Q547.91,120.341 552.635,122.987 Q557.36,125.633 559.88,130.547 Q560.258,131.303 560.762,130.547 Q563.534,125.381 568.259,122.861 Q572.984,120.341 578.906,120.341 z" fill="#000000"/>
    <path d="M665.247,147.053 Q666.004,151.841 665.752,157.763 Q665.626,159.275 664.114,159.275 L625.18,159.275 Q624.424,159.275 624.676,159.905 Q625.054,162.425 626.062,164.945 Q629.338,172.001 639.418,172.001 Q647.482,171.875 652.143,165.449 Q652.648,164.693 653.278,164.693 Q653.656,164.693 654.16,165.197 L663.232,174.143 Q663.862,174.773 663.862,175.277 Q663.862,175.529 663.358,176.285 Q659.2,181.451 652.648,184.286 Q646.096,187.121 638.284,187.121 Q627.448,187.121 619.951,182.207 Q612.454,177.293 609.178,168.473 Q606.531,162.173 606.531,151.967 Q606.531,145.037 608.422,139.745 Q611.32,130.799 618.565,125.507 Q625.81,120.215 635.764,120.215 Q648.364,120.215 655.987,127.523 Q663.609,134.831 665.247,147.053 z M635.89,135.587 Q627.952,135.587 625.432,143.021 Q624.928,144.659 624.549,147.053 Q624.549,147.683 625.18,147.683 L646.978,147.683 Q647.734,147.683 647.482,147.053 Q646.852,143.399 646.852,143.525 Q645.718,139.745 642.883,137.666 Q640.048,135.587 635.89,135.587 z" fill="#000000"/>
    <path d="M706.482,120.341 Q716.562,120.341 722.736,126.515 Q728.91,132.689 728.91,143.273 L728.91,184.601 Q728.91,185.231 728.469,185.672 Q728.028,186.113 727.398,186.113 L712.656,186.113 Q712.026,186.113 711.585,185.672 Q711.144,185.231 711.144,184.601 L711.144,146.927 Q711.144,141.887 708.309,138.737 Q705.474,135.587 700.812,135.587 Q696.15,135.587 693.315,138.737 Q690.48,141.887 690.48,146.927 L690.48,184.601 Q690.48,185.231 690.039,185.672 Q689.598,186.113 688.968,186.113 L674.226,186.113 Q673.596,186.113 673.155,185.672 Q672.714,185.231 672.714,184.601 L672.714,122.861 Q672.714,122.231 673.155,121.79 Q673.596,121.349 674.226,121.349 L688.968,121.349 Q689.598,121.349 690.039,121.79 Q690.48,122.231 690.48,122.861 L690.48,127.271 Q690.48,127.649 690.732,127.775 Q690.984,127.901 691.11,127.649 Q696.276,120.341 706.482,120.341 z" fill="#000000"/>
    <path d="M774.806,134.075 Q774.806,134.705 774.365,135.146 Q773.924,135.587 773.294,135.587 L761.198,135.587 Q760.568,135.587 760.568,136.217 L760.568,162.929 Q760.568,167.087 762.269,169.103 Q763.97,171.119 767.75,171.119 L771.908,171.119 Q772.538,171.119 772.979,171.56 Q773.42,172.001 773.42,172.631 L773.42,184.601 Q773.42,185.987 771.908,186.239 Q766.616,186.491 764.348,186.491 Q753.89,186.491 748.724,183.026 Q743.558,179.561 743.432,169.985 L743.432,136.217 Q743.432,135.587 742.802,135.587 L735.62,135.587 Q734.99,135.587 734.549,135.146 Q734.108,134.705 734.108,134.075 L734.108,122.861 Q734.108,122.231 734.549,121.79 Q734.99,121.349 735.62,121.349 L742.802,121.349 Q743.432,121.349 743.432,120.719 L743.432,105.725 Q743.432,105.095 743.873,104.654 Q744.314,104.213 744.944,104.213 L759.056,104.213 Q759.686,104.213 760.127,104.654 Q760.568,105.095 760.568,105.725 L760.568,120.719 Q760.568,121.349 761.198,121.349 L773.294,121.349 Q773.924,121.349 774.365,121.79 Q774.806,122.231 774.806,122.861 z" fill="#000000"/>
    <path d="M807.346,120.341 Q815.536,120.341 821.962,123.176 Q828.388,126.011 831.979,130.925 Q835.57,135.839 835.57,141.887 L835.57,184.601 Q835.57,185.231 835.129,185.672 Q834.688,186.113 834.058,186.113 L819.316,186.113 Q818.686,186.113 818.245,185.672 Q817.804,185.231 817.804,184.601 L817.804,180.443 Q817.804,180.065 817.552,179.939 Q817.3,179.813 817.048,180.191 Q811.756,187.121 800.038,187.121 Q790.21,187.121 784.162,182.333 Q778.114,177.545 778.114,168.221 Q778.114,158.519 784.918,153.164 Q791.722,147.809 804.322,147.809 L817.174,147.809 Q817.804,147.809 817.804,147.179 L817.804,144.407 Q817.804,140.249 815.284,137.918 Q812.764,135.587 807.724,135.587 Q803.818,135.587 801.235,136.973 Q798.652,138.359 797.896,140.879 Q797.518,142.265 796.258,142.139 L781.012,140.123 Q779.5,139.871 779.626,138.989 Q780.13,133.697 783.847,129.413 Q787.564,125.129 793.675,122.735 Q799.786,120.341 807.346,120.341 z M804.826,173.891 Q810.244,173.891 814.024,170.993 Q817.804,168.095 817.804,163.559 L817.804,159.023 Q817.804,158.393 817.174,158.393 L808.102,158.393 Q802.432,158.393 799.219,160.535 Q796.006,162.677 796.006,166.583 Q796.006,169.985 798.4,171.938 Q800.794,173.891 804.826,173.891 z" fill="#000000"/>
    <path d="M879.828,134.075 Q879.828,134.705 879.387,135.146 Q878.945,135.587 878.316,135.587 L866.22,135.587 Q865.59,135.587 865.59,136.217 L865.59,162.929 Q865.59,167.087 867.291,169.103 Q868.992,171.119 872.772,171.119 L876.93,171.119 Q877.56,171.119 878.001,171.56 Q878.442,172.001 878.442,172.631 L878.442,184.601 Q878.442,185.987 876.93,186.239 Q871.638,186.491 869.37,186.491 Q858.911,186.491 853.746,183.026 Q848.58,179.561 848.454,169.985 L848.454,136.217 Q848.454,135.587 847.824,135.587 L840.642,135.587 Q840.012,135.587 839.57,135.146 Q839.13,134.705 839.13,134.075 L839.13,122.861 Q839.13,122.231 839.57,121.79 Q840.012,121.349 840.642,121.349 L847.824,121.349 Q848.454,121.349 848.454,120.719 L848.454,105.725 Q848.454,105.095 848.895,104.654 Q849.336,104.213 849.966,104.213 L864.078,104.213 Q864.708,104.213 865.148,104.654 Q865.59,105.095 865.59,105.725 L865.59,120.719 Q865.59,121.349 866.22,121.349 L878.316,121.349 Q878.945,121.349 879.387,121.79 Q879.828,122.231 879.828,122.861 z" fill="#000000"/>
    <path d="M896.114,114.041 Q891.83,114.041 888.995,111.206 Q886.16,108.371 886.16,104.087 Q886.16,99.677 888.932,96.905 Q891.704,94.133 896.114,94.133 Q900.524,94.133 903.296,96.905 Q906.068,99.677 906.068,104.087 Q906.068,108.371 903.233,111.206 Q900.398,114.041 896.114,114.041 z M888.554,186.113 Q887.924,186.113 887.483,185.672 Q887.042,185.231 887.042,184.601 L887.042,122.735 Q887.042,122.105 887.483,121.664 Q887.924,121.223 888.554,121.223 L903.296,121.223 Q903.926,121.223 904.367,121.664 Q904.808,122.105 904.808,122.735 L904.808,184.601 Q904.808,185.231 904.367,185.672 Q903.926,186.113 903.296,186.113 z" fill="#000000"/>
    <path d="M943.27,187.121 Q932.686,187.121 925.126,181.577 Q917.566,176.033 914.794,166.457 Q913.03,160.535 913.03,153.605 Q913.03,146.171 914.794,140.249 Q917.692,130.925 925.252,125.633 Q932.812,120.341 943.396,120.341 Q953.728,120.341 961.036,125.57 Q968.344,130.799 971.368,140.123 Q973.384,146.423 973.384,153.353 Q973.384,160.157 971.62,166.079 Q968.848,175.907 961.351,181.514 Q953.854,187.121 943.27,187.121 z M943.27,171.875 Q947.428,171.875 950.326,169.355 Q953.224,166.835 954.484,162.425 Q955.492,158.393 955.492,153.605 Q955.492,148.313 954.484,144.659 Q953.098,140.375 950.2,137.981 Q947.302,135.587 943.144,135.587 Q938.86,135.587 936.025,137.981 Q933.19,140.375 931.93,144.659 Q930.922,147.683 930.922,153.605 Q930.922,159.275 931.804,162.425 Q933.064,166.835 936.025,169.355 Q938.986,171.875 943.27,171.875 z" fill="#000000"/>
    <path d="M1014.618,120.341 Q1024.698,120.341 1030.872,126.515 Q1037.046,132.689 1037.046,143.273 L1037.046,184.601 Q1037.046,185.231 1036.604,185.672 Q1036.164,186.113 1035.534,186.113 L1020.792,186.113 Q1020.161,186.113 1019.721,185.672 Q1019.28,185.231 1019.28,184.601 L1019.28,146.927 Q1019.28,141.887 1016.445,138.737 Q1013.61,135.587 1008.948,135.587 Q1004.286,135.587 1001.451,138.737 Q998.616,141.887 998.616,146.927 L998.616,184.601 Q998.616,185.231 998.174,185.672 Q997.734,186.113 997.104,186.113 L982.362,186.113 Q981.732,186.113 981.291,185.672 Q980.85,185.231 980.85,184.601 L980.85,122.861 Q980.85,122.231 981.291,121.79 Q981.732,121.349 982.362,121.349 L997.104,121.349 Q997.734,121.349 998.174,121.79 Q998.616,122.231 998.616,122.861 L998.616,127.271 Q998.616,127.649 998.868,127.775 Q999.12,127.901 999.246,127.649 Q1004.411,120.341 1014.618,120.341 z" fill="#000000"/>
    <g>
      <g>
        <path d="M-0,77.49 L-0,77.49 C-0.022,59.628 14.448,45.136 32.31,45.13 L58.17,45.13 C61.735,45.136 64.624,48.025 64.63,51.59 L64.63,180.84 C64.63,184.408 61.738,187.3 58.17,187.3 L32.31,187.3 C14.472,187.294 0.011,172.838 -0,155 L-0,77.49 z" fill="#004B87"/>
        <path d="M84.01,-0 L135.72,-0 C139.288,-0 142.18,2.892 142.18,6.46 L142.18,180.84 C142.18,184.408 139.288,187.3 135.72,187.3 L84.01,187.3 C80.442,187.3 77.55,184.408 77.55,180.84 L77.55,6.46 C77.55,2.892 80.442,-0 84.01,-0 z" fill="#FFCD00"/>
      </g>
      <path d="M226.19,155 C226.184,172.843 211.716,187.304 193.873,187.3 C176.03,187.296 161.568,172.83 161.57,154.987 C161.572,137.144 176.037,122.68 193.88,122.68 C211.726,122.686 226.19,137.154 226.19,155 z" fill="#004B87"/>
    </g>
    <text transform="matrix(1, 0, 0, 1, 742.729, 95.155)" display="none">
      <tspan x="-503.522" y="0.358" font-family="Barlow-Bold" font-size="126" kerning="-4" fill="#000000">decidim</tspan>
      <tspan x="-503.522" y="90.958" font-family="Barlow-Bold" font-size="126" kerning="-4" fill="#000000">dokumentation</tspan>
    </text>
  </g>
</svg>
